<svg width="36" height="36" viewBox="0 0 36 36" fill="none" xmlns="http://www.w3.org/2000/svg">
<g clip-path="url(#clip0_53_376)">
<path fill-rule="evenodd" clip-rule="evenodd" d="M4.61405 8.4255C4.72767 8.15147 4.91999 7.91728 5.16669 7.75255C5.41339 7.58781 5.7034 7.49993 6.00005 7.5H21.0001C22.3789 7.5 23.7443 7.77159 25.0182 8.29926C26.2921 8.82694 27.4497 9.60036 28.4247 10.5754C29.3997 11.5504 30.1731 12.7079 30.7008 13.9818C31.2285 15.2557 31.5001 16.6211 31.5001 18C31.5001 19.3789 31.2285 20.7443 30.7008 22.0182C30.1731 23.2921 29.3997 24.4496 28.4247 25.4246C27.4497 26.3996 26.2921 27.1731 25.0182 27.7007C23.7443 28.2284 22.3789 28.5 21.0001 28.5H7.50005C7.10223 28.5 6.7207 28.342 6.43939 28.0607C6.15809 27.7794 6.00005 27.3978 6.00005 27C6.00005 26.6022 6.15809 26.2206 6.43939 25.9393C6.7207 25.658 7.10223 25.5 7.50005 25.5H21.0001C22.9892 25.5 24.8968 24.7098 26.3034 23.3033C27.7099 21.8968 28.5001 19.9891 28.5001 18C28.5001 16.0109 27.7099 14.1032 26.3034 12.6967C24.8968 11.2902 22.9892 10.5 21.0001 10.5H9.62105L12.3106 13.1895C12.5838 13.4724 12.735 13.8513 12.7316 14.2446C12.7281 14.6379 12.5704 15.0141 12.2923 15.2922C12.0142 15.5703 11.6379 15.7281 11.2447 15.7315C10.8514 15.7349 10.4725 15.5837 10.1896 15.3105L4.93955 10.0605C4.72965 9.85073 4.58669 9.58342 4.52875 9.29238C4.47081 9.00135 4.50049 8.69966 4.61405 8.4255Z" fill="white"/>
</g>
<defs>
<clipPath id="clip0_53_376">
<rect width="36" height="36" fill="white"/>
</clipPath>
</defs>
</svg>
