<svg width="39" height="39" viewBox="0 0 39 39" fill="none" xmlns="http://www.w3.org/2000/svg">
<path d="M6.09375 17.0625C5.77052 17.0625 5.46052 16.9341 5.23196 16.7055C5.0034 16.477 4.875 16.167 4.875 15.8438V6.09619C4.875 5.77296 5.0034 5.46297 5.23196 5.23441C5.46052 5.00585 5.77052 4.87744 6.09375 4.87744H15.8438C16.167 4.87744 16.477 5.00585 16.7055 5.23441C16.9341 5.46297 17.0625 5.77296 17.0625 6.09619V15.8438C17.0625 16.167 16.9341 16.477 16.7055 16.7055C16.477 16.9341 16.167 17.0625 15.8438 17.0625H6.09375ZM23.1562 17.0625C22.833 17.0625 22.523 16.9341 22.2945 16.7055C22.0659 16.477 21.9375 16.167 21.9375 15.8438V6.09619C21.9375 5.77296 22.0659 5.46297 22.2945 5.23441C22.523 5.00585 22.833 4.87744 23.1562 4.87744H32.9038C33.227 4.87744 33.537 5.00585 33.7656 5.23441C33.9942 5.46297 34.1226 5.77296 34.1226 6.09619V15.8438C34.1226 16.167 33.9942 16.477 33.7656 16.7055C33.537 16.9341 33.227 17.0625 32.9038 17.0625H23.1562ZM6.09375 34.125C5.77052 34.125 5.46052 33.9966 5.23196 33.768C5.0034 33.5395 4.875 33.2295 4.875 32.9063V23.1563C4.875 22.833 5.0034 22.523 5.23196 22.2945C5.46052 22.0659 5.77052 21.9375 6.09375 21.9375H15.8438C16.167 21.9375 16.477 22.0659 16.7055 22.2945C16.9341 22.523 17.0625 22.833 17.0625 23.1563V32.9063C17.0625 33.2295 16.9341 33.5395 16.7055 33.768C16.477 33.9966 16.167 34.125 15.8438 34.125H6.09375ZM23.1562 34.125C22.833 34.125 22.523 33.9966 22.2945 33.768C22.0659 33.5395 21.9375 33.2295 21.9375 32.9063V23.1563C21.9375 22.833 22.0659 22.523 22.2945 22.2945C22.523 22.0659 22.833 21.9375 23.1562 21.9375H32.9038C33.227 21.9375 33.537 22.0659 33.7656 22.2945C33.9942 22.523 34.1226 22.833 34.1226 23.1563V32.9063C34.1226 33.2295 33.9942 33.5395 33.7656 33.768C33.537 33.9966 33.227 34.125 32.9038 34.125H23.1562Z" fill="#65A9E0"/>
</svg>
